<?xml version="1.0" encoding="UTF-8"?>
<svg id="Layer_2" data-name="Layer 2" xmlns="http://www.w3.org/2000/svg" viewBox="0 0 73.09 677.46">
  <defs>
    <style>
      .cls-1, .cls-2, .cls-3, .cls-4, .cls-5, .cls-6 {
        stroke-width: 0px;
      }

      .cls-2 {
        fill: #63a5d9;
      }

      .cls-3 {
        fill: #449fd9;
      }

      .cls-4 {
        fill: #f1faff;
      }

      .cls-5 {
        fill: orange;
      }

      .cls-6 {
        fill: #ffcd50;
      }
    </style>
  </defs>
  <g id="Layer_1-2" data-name="Layer 1">
    <path class="cls-1" d="m37.54,127.37c-2.06-7.48-2.07-15.46,0-22.94,2.07,7.47,2.06,15.46,0,22.94h0Z"/>
    <g>
      <path class="cls-6" d="m71.98,79.74c0,19.57-15.86,35.43-35.43,35.43S3.11,99.31,3.11,79.74,36.54,0,36.54,0c0,0,35.43,60.17,35.43,79.74Z"/>
      <path class="cls-5" d="m36.54,115.17c-14.02,0-22.24-10.79-22.24-24.81,0-9.37,9.8-37.26,22.24-60.06,12.44,22.8,22.21,44.29,22.21,53.67,0,14.02-8.19,31.2-22.21,31.2Z"/>
      <path class="cls-4" d="m36.54,115.23c-8.51,0-15.43-6.92-15.43-15.43,0-3.24,4.34-15.97,15.43-37.96,11.09,21.99,15.43,34.72,15.43,37.96,0,8.51-6.92,15.43-15.43,15.43Z"/>
    </g>
    <path class="cls-3" d="m73.09,137.93v539.53H0V137.93l25.21-13.8c7.06-3.86,15.61-3.86,22.67,0l22.5,12.32,2.71,1.48Z"/>
    <g>
      <polygon class="cls-2" points="73.09 137.93 73.09 179.32 0 221.52 0 177.08 70.38 136.45 73.09 137.93"/>
      <polygon class="cls-2" points="73.09 226.07 73.09 270.51 0 312.71 0 268.28 73.09 226.07"/>
      <polygon class="cls-2" points="73.09 317.26 73.09 361.7 0 403.9 0 359.46 73.09 317.26"/>
      <polygon class="cls-2" points="73.09 408.45 73.09 452.9 0 495.09 0 450.65 73.09 408.45"/>
      <polygon class="cls-2" points="73.09 499.64 73.09 544.08 0 586.28 0 541.84 73.09 499.64"/>
      <polygon class="cls-2" points="73.09 590.83 73.09 635.27 .02 677.46 0 677.46 0 633.03 73.09 590.83"/>
    </g>
  </g>
</svg>