<?xml version="1.0" encoding="UTF-8"?>
<svg id="Layer_2" data-name="Layer 2" xmlns="http://www.w3.org/2000/svg" viewBox="0 0 3873.09 677.46">
  <defs>
    <style>
      .cls-1, .cls-2, .cls-3, .cls-4, .cls-5, .cls-6 {
        stroke-width: 0px;
      }

      .cls-2 {
        fill: #63a5d9;
      }

      .cls-3 {
        fill: #449fd9;
      }

      .cls-4 {
        fill: #f1faff;
      }

      .cls-5 {
        fill: orange;
      }

      .cls-6 {
        fill: #ffcd50;
      }
    </style>
  </defs>
  <g id="Layer_1-2" data-name="Layer 1">
    <path class="cls-1" d="m37.54,127.37c-2.06-7.48-2.07-15.46,0-22.94,2.07,7.47,2.06,15.46,0,22.94h0Z"/>
    <g>
      <path class="cls-6" d="m71.98,79.74c0,19.57-15.86,35.43-35.43,35.43S3.11,99.31,3.11,79.74,36.54,0,36.54,0c0,0,35.43,60.17,35.43,79.74Z"/>
      <path class="cls-5" d="m36.54,115.17c-14.02,0-22.24-10.79-22.24-24.81,0-9.37,9.8-37.26,22.24-60.06,12.44,22.8,22.21,44.29,22.21,53.67,0,14.02-8.19,31.2-22.21,31.2Z"/>
      <path class="cls-4" d="m36.54,115.23c-8.51,0-15.43-6.92-15.43-15.43,0-3.24,4.34-15.97,15.43-37.96,11.09,21.99,15.43,34.72,15.43,37.96,0,8.51-6.92,15.43-15.43,15.43Z"/>
    </g>
    <path class="cls-1" d="m137.54,127.37c-2.06-7.48-2.07-15.46,0-22.94,2.07,7.47,2.06,15.46,0,22.94h0Z"/>
    <g>
      <path class="cls-6" d="m171.98,79.74c0,19.57-15.86,35.43-35.43,35.43s-33.43-15.86-33.43-35.43S136.54,0,136.54,0c0,0,35.43,60.17,35.43,79.74Z"/>
      <path class="cls-5" d="m136.54,115.17c-14.02,0-22.24-10.79-22.24-24.81,0-9.37,9.8-37.26,22.24-60.06,12.44,22.8,22.21,44.29,22.21,53.67,0,14.02-8.19,31.2-22.21,31.2Z"/>
      <path class="cls-4" d="m136.54,115.23c-8.51,0-15.43-6.92-15.43-15.43,0-3.24,4.34-15.97,15.43-37.96,11.09,21.99,15.43,34.72,15.43,37.96,0,8.51-6.92,15.43-15.43,15.43Z"/>
    </g>
    <path class="cls-1" d="m237.54,127.37c-2.06-7.48-2.07-15.46,0-22.94,2.07,7.47,2.06,15.46,0,22.94h0Z"/>
    <g>
      <path class="cls-6" d="m271.98,79.74c0,19.57-15.86,35.43-35.43,35.43s-33.43-15.86-33.43-35.43S236.54,0,236.54,0c0,0,35.43,60.17,35.43,79.74Z"/>
      <path class="cls-5" d="m236.54,115.17c-14.02,0-22.24-10.79-22.24-24.81,0-9.37,9.8-37.26,22.24-60.06,12.44,22.8,22.21,44.29,22.21,53.67,0,14.02-8.19,31.2-22.21,31.2Z"/>
      <path class="cls-4" d="m236.54,115.23c-8.51,0-15.43-6.92-15.43-15.43,0-3.24,4.34-15.97,15.43-37.96,11.09,21.99,15.43,34.72,15.43,37.96,0,8.51-6.92,15.43-15.43,15.43Z"/>
    </g>
    <path class="cls-1" d="m337.54,127.37c-2.06-7.48-2.07-15.46,0-22.94,2.07,7.47,2.06,15.46,0,22.94h0Z"/>
    <g>
      <path class="cls-6" d="m371.98,79.74c0,19.57-15.86,35.43-35.43,35.43s-33.43-15.86-33.43-35.43S336.54,0,336.54,0c0,0,35.43,60.17,35.43,79.74Z"/>
      <path class="cls-5" d="m336.54,115.17c-14.02,0-22.24-10.79-22.24-24.81,0-9.37,9.8-37.26,22.24-60.06,12.44,22.8,22.21,44.29,22.21,53.67,0,14.02-8.19,31.2-22.21,31.2Z"/>
      <path class="cls-4" d="m336.54,115.23c-8.51,0-15.43-6.92-15.43-15.43,0-3.24,4.34-15.97,15.43-37.96,11.09,21.99,15.43,34.72,15.43,37.96,0,8.51-6.92,15.43-15.43,15.43Z"/>
    </g>
    <path class="cls-1" d="m437.54,127.37c-2.06-7.48-2.07-15.46,0-22.94,2.07,7.47,2.06,15.46,0,22.94h0Z"/>
    <g>
      <path class="cls-6" d="m471.98,79.74c0,19.57-15.86,35.43-35.43,35.43s-33.43-15.86-33.43-35.43S436.54,0,436.54,0c0,0,35.43,60.17,35.43,79.74Z"/>
      <path class="cls-5" d="m436.54,115.17c-14.02,0-22.24-10.79-22.24-24.81,0-9.37,9.8-37.26,22.24-60.06,12.44,22.8,22.21,44.29,22.21,53.67,0,14.02-8.19,31.2-22.21,31.2Z"/>
      <path class="cls-4" d="m436.54,115.23c-8.51,0-15.43-6.92-15.43-15.43,0-3.24,4.34-15.97,15.43-37.96,11.09,21.99,15.43,34.72,15.43,37.96,0,8.51-6.92,15.43-15.43,15.43Z"/>
    </g>
    <path class="cls-1" d="m537.54,127.37c-2.06-7.48-2.07-15.46,0-22.94,2.07,7.47,2.06,15.46,0,22.94h0Z"/>
    <g>
      <path class="cls-6" d="m571.98,79.74c0,19.57-15.86,35.43-35.43,35.43s-33.43-15.86-33.43-35.43S536.54,0,536.54,0c0,0,35.43,60.17,35.43,79.74Z"/>
      <path class="cls-5" d="m536.54,115.17c-14.02,0-22.24-10.79-22.24-24.81,0-9.37,9.8-37.26,22.24-60.06,12.44,22.8,22.21,44.29,22.21,53.67,0,14.02-8.19,31.2-22.21,31.2Z"/>
      <path class="cls-4" d="m536.54,115.23c-8.51,0-15.43-6.92-15.43-15.43,0-3.24,4.34-15.97,15.43-37.96,11.09,21.99,15.43,34.72,15.43,37.96,0,8.51-6.92,15.43-15.43,15.43Z"/>
    </g>
    <path class="cls-1" d="m637.54,127.37c-2.06-7.48-2.07-15.46,0-22.94,2.07,7.47,2.06,15.46,0,22.94h0Z"/>
    <g>
      <path class="cls-6" d="m671.98,79.74c0,19.57-15.86,35.43-35.43,35.43s-33.43-15.86-33.43-35.43S636.54,0,636.54,0c0,0,35.43,60.17,35.43,79.74Z"/>
      <path class="cls-5" d="m636.54,115.17c-14.02,0-22.24-10.79-22.24-24.81,0-9.37,9.8-37.26,22.24-60.06,12.44,22.8,22.21,44.29,22.21,53.67,0,14.02-8.19,31.2-22.21,31.2Z"/>
      <path class="cls-4" d="m636.54,115.23c-8.51,0-15.43-6.92-15.43-15.43,0-3.24,4.34-15.97,15.43-37.96,11.09,21.99,15.43,34.72,15.43,37.96,0,8.51-6.92,15.43-15.43,15.43Z"/>
    </g>
    <path class="cls-1" d="m737.54,127.37c-2.06-7.48-2.07-15.46,0-22.94,2.07,7.47,2.06,15.46,0,22.94h0Z"/>
    <g>
      <path class="cls-6" d="m771.98,79.74c0,19.57-15.86,35.43-35.43,35.43s-33.43-15.86-33.43-35.43S736.54,0,736.54,0c0,0,35.43,60.17,35.43,79.74Z"/>
      <path class="cls-5" d="m736.54,115.17c-14.02,0-22.24-10.79-22.24-24.81,0-9.37,9.8-37.26,22.24-60.06,12.44,22.8,22.21,44.29,22.21,53.67,0,14.02-8.19,31.2-22.21,31.2Z"/>
      <path class="cls-4" d="m736.54,115.23c-8.51,0-15.43-6.92-15.43-15.43,0-3.24,4.34-15.97,15.43-37.96,11.09,21.99,15.43,34.72,15.43,37.96,0,8.51-6.92,15.43-15.43,15.43Z"/>
    </g>
    <path class="cls-1" d="m837.54,127.37c-2.06-7.48-2.07-15.46,0-22.94,2.07,7.47,2.06,15.46,0,22.94h0Z"/>
    <g>
      <path class="cls-6" d="m871.98,79.74c0,19.57-15.86,35.43-35.43,35.43s-33.43-15.86-33.43-35.43S836.54,0,836.54,0c0,0,35.43,60.17,35.43,79.74Z"/>
      <path class="cls-5" d="m836.54,115.17c-14.02,0-22.24-10.79-22.24-24.81,0-9.37,9.8-37.26,22.24-60.06,12.44,22.8,22.21,44.29,22.21,53.67,0,14.02-8.19,31.2-22.21,31.2Z"/>
      <path class="cls-4" d="m836.54,115.23c-8.51,0-15.43-6.92-15.43-15.43,0-3.24,4.34-15.97,15.43-37.96,11.09,21.99,15.43,34.72,15.43,37.96,0,8.51-6.92,15.43-15.43,15.43Z"/>
    </g>
    <path class="cls-1" d="m937.54,127.37c-2.06-7.48-2.07-15.46,0-22.94,2.07,7.47,2.06,15.46,0,22.94h0Z"/>
    <g>
      <path class="cls-6" d="m971.98,79.74c0,19.57-15.86,35.43-35.43,35.43s-33.43-15.86-33.43-35.43S936.54,0,936.54,0c0,0,35.43,60.17,35.43,79.74Z"/>
      <path class="cls-5" d="m936.54,115.17c-14.02,0-22.24-10.79-22.24-24.81,0-9.37,9.8-37.26,22.24-60.06,12.44,22.8,22.21,44.29,22.21,53.67,0,14.02-8.19,31.2-22.21,31.2Z"/>
      <path class="cls-4" d="m936.54,115.23c-8.51,0-15.43-6.92-15.43-15.43,0-3.24,4.34-15.97,15.43-37.96,11.09,21.99,15.43,34.72,15.43,37.96,0,8.51-6.92,15.43-15.43,15.43Z"/>
    </g>
    <path class="cls-1" d="m1037.54,127.37c-2.06-7.48-2.07-15.46,0-22.94,2.07,7.47,2.06,15.46,0,22.94h0Z"/>
    <g>
      <path class="cls-6" d="m1071.98,79.74c0,19.57-15.86,35.43-35.43,35.43s-33.43-15.86-33.43-35.43S1036.54,0,1036.54,0c0,0,35.43,60.17,35.43,79.74Z"/>
      <path class="cls-5" d="m1036.54,115.17c-14.02,0-22.24-10.79-22.24-24.81,0-9.37,9.8-37.26,22.24-60.06,12.44,22.8,22.21,44.29,22.21,53.67,0,14.02-8.19,31.2-22.21,31.2Z"/>
      <path class="cls-4" d="m1036.54,115.23c-8.51,0-15.43-6.92-15.43-15.43,0-3.24,4.34-15.97,15.43-37.96,11.09,21.99,15.43,34.72,15.43,37.96,0,8.51-6.92,15.43-15.43,15.43Z"/>
    </g>
    <path class="cls-1" d="m1137.54,127.37c-2.06-7.48-2.07-15.46,0-22.94,2.07,7.47,2.06,15.46,0,22.94h0Z"/>
    <g>
      <path class="cls-6" d="m1171.98,79.74c0,19.57-15.86,35.43-35.43,35.43s-33.43-15.86-33.43-35.43S1136.54,0,1136.54,0c0,0,35.43,60.17,35.43,79.74Z"/>
      <path class="cls-5" d="m1136.54,115.17c-14.02,0-22.24-10.79-22.24-24.81,0-9.37,9.8-37.26,22.24-60.06,12.44,22.8,22.21,44.29,22.21,53.67,0,14.02-8.19,31.2-22.21,31.2Z"/>
      <path class="cls-4" d="m1136.54,115.23c-8.51,0-15.43-6.92-15.43-15.43,0-3.24,4.34-15.97,15.43-37.96,11.09,21.99,15.43,34.72,15.43,37.96,0,8.51-6.92,15.43-15.43,15.43Z"/>
    </g>
    <path class="cls-1" d="m1237.54,127.37c-2.06-7.48-2.07-15.46,0-22.94,2.07,7.47,2.06,15.46,0,22.94h0Z"/>
    <g>
      <path class="cls-6" d="m1271.98,79.74c0,19.57-15.86,35.43-35.43,35.43s-33.43-15.86-33.43-35.43S1236.54,0,1236.54,0c0,0,35.43,60.17,35.43,79.74Z"/>
      <path class="cls-5" d="m1236.54,115.17c-14.02,0-22.24-10.79-22.24-24.81,0-9.37,9.8-37.26,22.24-60.06,12.44,22.8,22.21,44.29,22.21,53.67,0,14.02-8.19,31.2-22.21,31.2Z"/>
      <path class="cls-4" d="m1236.54,115.23c-8.51,0-15.43-6.92-15.43-15.43,0-3.24,4.34-15.97,15.43-37.96,11.09,21.99,15.43,34.72,15.43,37.96,0,8.51-6.92,15.43-15.43,15.43Z"/>
    </g>
    <path class="cls-1" d="m1337.54,127.37c-2.06-7.48-2.07-15.46,0-22.94,2.07,7.47,2.06,15.46,0,22.94h0Z"/>
    <g>
      <path class="cls-6" d="m1371.98,79.74c0,19.57-15.86,35.43-35.43,35.43s-33.43-15.86-33.43-35.43S1336.54,0,1336.54,0c0,0,35.43,60.17,35.43,79.74Z"/>
      <path class="cls-5" d="m1336.54,115.17c-14.02,0-22.24-10.79-22.24-24.81,0-9.37,9.8-37.26,22.24-60.06,12.44,22.8,22.21,44.29,22.21,53.67,0,14.02-8.19,31.2-22.21,31.2Z"/>
      <path class="cls-4" d="m1336.54,115.23c-8.51,0-15.43-6.92-15.43-15.43,0-3.24,4.34-15.97,15.43-37.96,11.09,21.99,15.43,34.72,15.43,37.96,0,8.51-6.92,15.43-15.43,15.43Z"/>
    </g>
    <path class="cls-1" d="m1437.54,127.37c-2.06-7.48-2.07-15.46,0-22.94,2.07,7.47,2.06,15.46,0,22.94h0Z"/>
    <g>
      <path class="cls-6" d="m1471.98,79.74c0,19.57-15.86,35.43-35.43,35.43s-33.43-15.86-33.43-35.43S1436.54,0,1436.54,0c0,0,35.43,60.17,35.43,79.74Z"/>
      <path class="cls-5" d="m1436.54,115.17c-14.02,0-22.24-10.79-22.24-24.81,0-9.37,9.8-37.26,22.24-60.06,12.44,22.8,22.21,44.29,22.21,53.67,0,14.02-8.19,31.2-22.21,31.2Z"/>
      <path class="cls-4" d="m1436.54,115.23c-8.51,0-15.43-6.92-15.43-15.43,0-3.24,4.34-15.97,15.43-37.96,11.09,21.99,15.43,34.72,15.43,37.96,0,8.51-6.92,15.43-15.43,15.43Z"/>
    </g>
    <path class="cls-1" d="m1537.54,127.37c-2.06-7.48-2.07-15.46,0-22.94,2.07,7.47,2.06,15.46,0,22.94h0Z"/>
    <g>
      <path class="cls-6" d="m1571.98,79.74c0,19.57-15.86,35.43-35.43,35.43s-33.43-15.86-33.43-35.43S1536.54,0,1536.54,0c0,0,35.43,60.17,35.43,79.74Z"/>
      <path class="cls-5" d="m1536.54,115.17c-14.02,0-22.24-10.79-22.24-24.81,0-9.37,9.8-37.26,22.24-60.06,12.44,22.8,22.21,44.29,22.21,53.67,0,14.02-8.19,31.2-22.21,31.2Z"/>
      <path class="cls-4" d="m1536.54,115.23c-8.51,0-15.43-6.92-15.43-15.43,0-3.24,4.34-15.97,15.43-37.96,11.09,21.99,15.43,34.72,15.43,37.96,0,8.51-6.92,15.43-15.43,15.43Z"/>
    </g>
    <path class="cls-1" d="m1637.54,127.37c-2.06-7.48-2.07-15.46,0-22.94,2.07,7.47,2.06,15.46,0,22.94h0Z"/>
    <g>
      <path class="cls-6" d="m1671.98,79.74c0,19.57-15.86,35.43-35.43,35.43s-33.43-15.86-33.43-35.43S1636.54,0,1636.54,0c0,0,35.43,60.17,35.43,79.74Z"/>
      <path class="cls-5" d="m1636.54,115.17c-14.02,0-22.24-10.79-22.24-24.81,0-9.37,9.8-37.26,22.24-60.06,12.44,22.8,22.21,44.29,22.21,53.67,0,14.02-8.19,31.2-22.21,31.2Z"/>
      <path class="cls-4" d="m1636.54,115.23c-8.51,0-15.43-6.92-15.43-15.43,0-3.24,4.34-15.97,15.43-37.96,11.09,21.99,15.43,34.72,15.43,37.96,0,8.51-6.92,15.43-15.43,15.43Z"/>
    </g>
    <path class="cls-1" d="m1737.54,127.37c-2.06-7.48-2.07-15.46,0-22.94,2.07,7.47,2.06,15.46,0,22.94h0Z"/>
    <g>
      <path class="cls-6" d="m1771.98,79.74c0,19.57-15.86,35.43-35.43,35.43s-33.43-15.86-33.43-35.43S1736.54,0,1736.54,0c0,0,35.43,60.17,35.43,79.74Z"/>
      <path class="cls-5" d="m1736.54,115.17c-14.02,0-22.24-10.79-22.24-24.81,0-9.37,9.8-37.26,22.24-60.06,12.44,22.8,22.21,44.29,22.21,53.67,0,14.02-8.19,31.2-22.21,31.2Z"/>
      <path class="cls-4" d="m1736.54,115.23c-8.51,0-15.43-6.92-15.43-15.43,0-3.24,4.34-15.97,15.43-37.96,11.09,21.99,15.43,34.72,15.43,37.96,0,8.51-6.92,15.43-15.43,15.43Z"/>
    </g>
    <path class="cls-1" d="m1837.54,127.37c-2.06-7.48-2.07-15.46,0-22.94,2.07,7.47,2.06,15.46,0,22.94h0Z"/>
    <g>
      <path class="cls-6" d="m1871.98,79.74c0,19.57-15.86,35.43-35.43,35.43s-33.43-15.86-33.43-35.43S1836.54,0,1836.54,0c0,0,35.43,60.17,35.43,79.74Z"/>
      <path class="cls-5" d="m1836.54,115.17c-14.02,0-22.24-10.79-22.24-24.81,0-9.37,9.8-37.26,22.24-60.06,12.44,22.8,22.21,44.29,22.21,53.67,0,14.02-8.19,31.2-22.21,31.2Z"/>
      <path class="cls-4" d="m1836.54,115.23c-8.51,0-15.43-6.92-15.43-15.43,0-3.24,4.34-15.97,15.43-37.96,11.09,21.99,15.43,34.72,15.43,37.96,0,8.51-6.92,15.43-15.43,15.43Z"/>
    </g>
    <path class="cls-1" d="m1937.54,127.37c-2.06-7.48-2.07-15.46,0-22.94,2.07,7.47,2.06,15.46,0,22.94h0Z"/>
    <g>
      <path class="cls-6" d="m1971.98,79.74c0,19.57-15.86,35.43-35.43,35.43s-33.43-15.86-33.43-35.43S1936.54,0,1936.54,0c0,0,35.43,60.17,35.43,79.74Z"/>
      <path class="cls-5" d="m1936.54,115.17c-14.02,0-22.24-10.79-22.24-24.81,0-9.37,9.8-37.26,22.24-60.06,12.44,22.8,22.21,44.29,22.21,53.67,0,14.02-8.19,31.2-22.21,31.2Z"/>
      <path class="cls-4" d="m1936.54,115.23c-8.51,0-15.43-6.92-15.43-15.43,0-3.24,4.34-15.97,15.43-37.96,11.09,21.99,15.43,34.72,15.43,37.96,0,8.51-6.92,15.43-15.43,15.43Z"/>
    </g>
    <path class="cls-1" d="m2037.54,127.37c-2.06-7.48-2.07-15.46,0-22.94,2.07,7.47,2.06,15.46,0,22.94h0Z"/>
    <g>
      <path class="cls-6" d="m2071.98,79.74c0,19.57-15.86,35.43-35.43,35.43s-33.43-15.86-33.43-35.43S2036.54,0,2036.54,0c0,0,35.43,60.17,35.43,79.74Z"/>
      <path class="cls-5" d="m2036.54,115.17c-14.02,0-22.24-10.79-22.24-24.81,0-9.37,9.8-37.26,22.24-60.06,12.44,22.8,22.21,44.29,22.21,53.67,0,14.02-8.19,31.2-22.21,31.2Z"/>
      <path class="cls-4" d="m2036.54,115.23c-8.51,0-15.43-6.92-15.43-15.43,0-3.24,4.34-15.97,15.43-37.96,11.09,21.99,15.43,34.72,15.43,37.96,0,8.51-6.92,15.43-15.43,15.43Z"/>
    </g>
    <path class="cls-1" d="m2137.54,127.37c-2.06-7.48-2.07-15.46,0-22.94,2.07,7.47,2.06,15.46,0,22.94h0Z"/>
    <g>
      <path class="cls-6" d="m2171.98,79.74c0,19.57-15.86,35.43-35.43,35.43s-33.43-15.86-33.43-35.43S2136.54,0,2136.54,0c0,0,35.43,60.17,35.43,79.74Z"/>
      <path class="cls-5" d="m2136.54,115.17c-14.02,0-22.24-10.79-22.24-24.81,0-9.37,9.8-37.26,22.24-60.06,12.44,22.8,22.21,44.29,22.21,53.67,0,14.02-8.19,31.2-22.21,31.2Z"/>
      <path class="cls-4" d="m2136.54,115.23c-8.51,0-15.43-6.92-15.43-15.43,0-3.24,4.34-15.97,15.43-37.96,11.09,21.99,15.43,34.72,15.43,37.96,0,8.51-6.92,15.43-15.43,15.43Z"/>
    </g>
    <path class="cls-1" d="m2237.54,127.37c-2.06-7.48-2.07-15.46,0-22.94,2.07,7.47,2.06,15.46,0,22.94h0Z"/>
    <g>
      <path class="cls-6" d="m2271.98,79.74c0,19.57-15.86,35.43-35.43,35.43s-33.43-15.86-33.43-35.43S2236.54,0,2236.54,0c0,0,35.43,60.17,35.43,79.74Z"/>
      <path class="cls-5" d="m2236.54,115.17c-14.02,0-22.24-10.79-22.24-24.81,0-9.37,9.8-37.26,22.24-60.06,12.44,22.8,22.21,44.29,22.21,53.67,0,14.02-8.19,31.2-22.21,31.2Z"/>
      <path class="cls-4" d="m2236.54,115.23c-8.51,0-15.43-6.92-15.43-15.43,0-3.24,4.34-15.97,15.43-37.96,11.09,21.99,15.43,34.72,15.43,37.96,0,8.51-6.92,15.43-15.43,15.43Z"/>
    </g>
    <path class="cls-1" d="m2337.54,127.37c-2.06-7.48-2.07-15.46,0-22.94,2.07,7.47,2.06,15.46,0,22.94h0Z"/>
    <g>
      <path class="cls-6" d="m2371.98,79.74c0,19.57-15.86,35.43-35.43,35.43s-33.43-15.86-33.43-35.43S2336.54,0,2336.54,0c0,0,35.43,60.17,35.43,79.74Z"/>
      <path class="cls-5" d="m2336.54,115.17c-14.02,0-22.24-10.79-22.24-24.81,0-9.37,9.8-37.26,22.24-60.06,12.44,22.8,22.21,44.29,22.21,53.67,0,14.02-8.19,31.2-22.21,31.2Z"/>
      <path class="cls-4" d="m2336.54,115.23c-8.51,0-15.43-6.92-15.43-15.43,0-3.24,4.34-15.97,15.43-37.96,11.09,21.99,15.43,34.72,15.43,37.96,0,8.51-6.92,15.43-15.43,15.43Z"/>
    </g>
    <path class="cls-1" d="m2437.54,127.37c-2.06-7.48-2.07-15.46,0-22.94,2.07,7.47,2.06,15.46,0,22.94h0Z"/>
    <g>
      <path class="cls-6" d="m2471.98,79.74c0,19.57-15.86,35.43-35.43,35.43s-33.43-15.86-33.43-35.43S2436.54,0,2436.54,0c0,0,35.43,60.17,35.43,79.74Z"/>
      <path class="cls-5" d="m2436.54,115.17c-14.02,0-22.24-10.79-22.24-24.81,0-9.37,9.8-37.26,22.24-60.06,12.44,22.8,22.21,44.29,22.21,53.67,0,14.02-8.19,31.2-22.21,31.2Z"/>
      <path class="cls-4" d="m2436.54,115.23c-8.51,0-15.43-6.92-15.43-15.43,0-3.24,4.34-15.97,15.43-37.96,11.09,21.99,15.43,34.72,15.43,37.96,0,8.51-6.92,15.43-15.43,15.43Z"/>
    </g>
    <path class="cls-1" d="m2537.54,127.37c-2.06-7.48-2.07-15.46,0-22.94,2.07,7.47,2.06,15.46,0,22.94h0Z"/>
    <g>
      <path class="cls-6" d="m2571.98,79.74c0,19.57-15.86,35.43-35.43,35.43s-33.43-15.86-33.43-35.43S2536.54,0,2536.54,0c0,0,35.43,60.17,35.43,79.74Z"/>
      <path class="cls-5" d="m2536.54,115.17c-14.02,0-22.24-10.79-22.24-24.81,0-9.37,9.8-37.26,22.24-60.06,12.44,22.8,22.21,44.29,22.21,53.67,0,14.02-8.19,31.2-22.21,31.2Z"/>
      <path class="cls-4" d="m2536.54,115.23c-8.51,0-15.43-6.92-15.43-15.43,0-3.24,4.34-15.97,15.43-37.96,11.09,21.99,15.43,34.72,15.43,37.96,0,8.51-6.92,15.43-15.43,15.43Z"/>
    </g>
    <path class="cls-1" d="m2637.54,127.37c-2.06-7.48-2.07-15.46,0-22.94,2.07,7.47,2.06,15.46,0,22.94h0Z"/>
    <g>
      <path class="cls-6" d="m2671.98,79.74c0,19.57-15.86,35.43-35.43,35.43s-33.43-15.86-33.43-35.43S2636.54,0,2636.54,0c0,0,35.43,60.17,35.43,79.74Z"/>
      <path class="cls-5" d="m2636.54,115.17c-14.02,0-22.24-10.79-22.24-24.81,0-9.37,9.8-37.26,22.24-60.06,12.44,22.8,22.21,44.29,22.21,53.67,0,14.02-8.19,31.2-22.21,31.2Z"/>
      <path class="cls-4" d="m2636.54,115.23c-8.51,0-15.43-6.92-15.43-15.43,0-3.24,4.34-15.97,15.43-37.96,11.09,21.99,15.43,34.72,15.43,37.96,0,8.51-6.92,15.43-15.43,15.43Z"/>
    </g>
    <path class="cls-1" d="m2737.54,127.37c-2.06-7.48-2.07-15.46,0-22.94,2.07,7.47,2.06,15.46,0,22.94h0Z"/>
    <g>
      <path class="cls-6" d="m2771.98,79.74c0,19.57-15.86,35.43-35.43,35.43s-33.43-15.86-33.43-35.43S2736.54,0,2736.54,0c0,0,35.43,60.17,35.43,79.74Z"/>
      <path class="cls-5" d="m2736.54,115.17c-14.02,0-22.24-10.79-22.24-24.81,0-9.37,9.8-37.26,22.24-60.06,12.44,22.8,22.21,44.29,22.21,53.67,0,14.02-8.19,31.2-22.21,31.2Z"/>
      <path class="cls-4" d="m2736.54,115.23c-8.51,0-15.43-6.92-15.43-15.43,0-3.24,4.34-15.97,15.43-37.96,11.09,21.99,15.43,34.72,15.43,37.96,0,8.51-6.92,15.43-15.43,15.43Z"/>
    </g>
    <path class="cls-1" d="m2837.54,127.37c-2.06-7.48-2.07-15.46,0-22.94,2.07,7.47,2.06,15.46,0,22.94h0Z"/>
    <g>
      <path class="cls-6" d="m2871.98,79.74c0,19.57-15.86,35.43-35.43,35.43s-33.43-15.86-33.43-35.43S2836.54,0,2836.54,0c0,0,35.43,60.17,35.43,79.74Z"/>
      <path class="cls-5" d="m2836.54,115.17c-14.02,0-22.24-10.79-22.24-24.81,0-9.37,9.8-37.26,22.24-60.06,12.44,22.8,22.21,44.29,22.21,53.67,0,14.02-8.19,31.2-22.21,31.2Z"/>
      <path class="cls-4" d="m2836.54,115.23c-8.51,0-15.43-6.92-15.43-15.43,0-3.24,4.34-15.97,15.43-37.96,11.09,21.99,15.43,34.72,15.43,37.96,0,8.51-6.92,15.43-15.43,15.43Z"/>
    </g>
    <path class="cls-1" d="m2937.54,127.37c-2.06-7.48-2.07-15.46,0-22.94,2.07,7.47,2.06,15.46,0,22.94h0Z"/>
    <g>
      <path class="cls-6" d="m2971.98,79.74c0,19.57-15.86,35.43-35.43,35.43s-33.43-15.86-33.43-35.43S2936.54,0,2936.54,0c0,0,35.43,60.17,35.43,79.74Z"/>
      <path class="cls-5" d="m2936.54,115.17c-14.02,0-22.24-10.79-22.24-24.81,0-9.37,9.8-37.26,22.24-60.06,12.44,22.8,22.21,44.29,22.21,53.67,0,14.02-8.19,31.2-22.21,31.2Z"/>
      <path class="cls-4" d="m2936.54,115.23c-8.51,0-15.43-6.92-15.43-15.43,0-3.24,4.34-15.97,15.43-37.96,11.09,21.99,15.43,34.72,15.43,37.96,0,8.51-6.92,15.43-15.43,15.43Z"/>
    </g>
    <path class="cls-1" d="m3037.54,127.37c-2.06-7.48-2.07-15.46,0-22.94,2.07,7.47,2.06,15.46,0,22.94h0Z"/>
    <g>
      <path class="cls-6" d="m3071.98,79.74c0,19.57-15.86,35.43-35.43,35.43s-33.43-15.86-33.43-35.43S3036.54,0,3036.54,0c0,0,35.43,60.17,35.43,79.74Z"/>
      <path class="cls-5" d="m3036.54,115.17c-14.02,0-22.24-10.79-22.24-24.81,0-9.37,9.8-37.26,22.24-60.06,12.44,22.8,22.21,44.29,22.21,53.67,0,14.02-8.19,31.2-22.21,31.2Z"/>
      <path class="cls-4" d="m3036.54,115.23c-8.51,0-15.43-6.92-15.43-15.43,0-3.24,4.34-15.97,15.43-37.96,11.09,21.99,15.43,34.72,15.43,37.96,0,8.51-6.92,15.43-15.43,15.43Z"/>
    </g>
    <path class="cls-1" d="m3137.54,127.37c-2.06-7.48-2.07-15.46,0-22.94,2.07,7.47,2.06,15.46,0,22.94h0Z"/>
    <g>
      <path class="cls-6" d="m3171.98,79.74c0,19.57-15.86,35.43-35.43,35.43s-33.43-15.86-33.43-35.43S3136.54,0,3136.54,0c0,0,35.43,60.17,35.43,79.74Z"/>
      <path class="cls-5" d="m3136.54,115.17c-14.02,0-22.24-10.79-22.24-24.81,0-9.37,9.8-37.26,22.24-60.06,12.44,22.8,22.21,44.29,22.21,53.67,0,14.02-8.19,31.2-22.21,31.2Z"/>
      <path class="cls-4" d="m3136.54,115.23c-8.51,0-15.43-6.92-15.43-15.43,0-3.24,4.34-15.97,15.43-37.96,11.09,21.99,15.43,34.72,15.43,37.96,0,8.51-6.92,15.43-15.43,15.43Z"/>
    </g>
    <path class="cls-1" d="m3237.54,127.37c-2.06-7.48-2.07-15.46,0-22.94,2.07,7.47,2.06,15.46,0,22.94h0Z"/>
    <g>
      <path class="cls-6" d="m3271.98,79.74c0,19.57-15.86,35.43-35.43,35.43s-33.43-15.86-33.43-35.43S3236.54,0,3236.54,0c0,0,35.43,60.17,35.43,79.74Z"/>
      <path class="cls-5" d="m3236.54,115.17c-14.02,0-22.24-10.79-22.24-24.81,0-9.37,9.8-37.26,22.24-60.06,12.44,22.8,22.21,44.29,22.21,53.67,0,14.02-8.19,31.2-22.21,31.2Z"/>
      <path class="cls-4" d="m3236.54,115.23c-8.51,0-15.43-6.92-15.43-15.43,0-3.24,4.34-15.97,15.43-37.96,11.09,21.99,15.43,34.72,15.43,37.96,0,8.51-6.92,15.43-15.43,15.43Z"/>
    </g>
    <path class="cls-1" d="m3337.54,127.37c-2.06-7.48-2.07-15.46,0-22.94,2.07,7.47,2.06,15.46,0,22.94h0Z"/>
    <g>
      <path class="cls-6" d="m3371.98,79.74c0,19.57-15.86,35.43-35.43,35.43s-33.43-15.86-33.43-35.43S3336.54,0,3336.54,0c0,0,35.43,60.17,35.43,79.74Z"/>
      <path class="cls-5" d="m3336.54,115.17c-14.02,0-22.24-10.79-22.24-24.81,0-9.37,9.8-37.26,22.24-60.06,12.44,22.8,22.21,44.29,22.21,53.67,0,14.02-8.19,31.2-22.21,31.2Z"/>
      <path class="cls-4" d="m3336.54,115.23c-8.51,0-15.43-6.92-15.43-15.43,0-3.24,4.34-15.97,15.43-37.96,11.09,21.99,15.43,34.72,15.43,37.96,0,8.51-6.92,15.43-15.43,15.43Z"/>
    </g>
    <path class="cls-1" d="m3437.54,127.37c-2.06-7.48-2.07-15.46,0-22.94,2.07,7.47,2.06,15.46,0,22.94h0Z"/>
    <g>
      <path class="cls-6" d="m3471.98,79.74c0,19.57-15.86,35.43-35.43,35.43s-33.43-15.86-33.43-35.43S3436.54,0,3436.54,0c0,0,35.43,60.17,35.43,79.74Z"/>
      <path class="cls-5" d="m3436.54,115.17c-14.02,0-22.24-10.79-22.24-24.81,0-9.37,9.8-37.26,22.24-60.06,12.44,22.8,22.21,44.29,22.21,53.67,0,14.02-8.19,31.2-22.21,31.2Z"/>
      <path class="cls-4" d="m3436.54,115.23c-8.51,0-15.43-6.92-15.43-15.43,0-3.24,4.34-15.97,15.43-37.96,11.09,21.99,15.43,34.72,15.43,37.96,0,8.51-6.92,15.43-15.43,15.43Z"/>
    </g>
    <path class="cls-1" d="m3537.54,127.37c-2.06-7.48-2.07-15.46,0-22.94,2.07,7.47,2.06,15.46,0,22.94h0Z"/>
    <g>
      <path class="cls-6" d="m3571.98,79.74c0,19.57-15.86,35.43-35.43,35.43s-33.43-15.86-33.43-35.43S3536.54,0,3536.54,0c0,0,35.43,60.17,35.43,79.74Z"/>
      <path class="cls-5" d="m3536.54,115.17c-14.02,0-22.24-10.79-22.24-24.81,0-9.37,9.8-37.26,22.24-60.06,12.44,22.8,22.21,44.29,22.21,53.67,0,14.02-8.19,31.2-22.21,31.2Z"/>
      <path class="cls-4" d="m3536.54,115.23c-8.51,0-15.43-6.92-15.43-15.43,0-3.24,4.34-15.97,15.43-37.96,11.09,21.99,15.43,34.72,15.43,37.96,0,8.51-6.92,15.43-15.43,15.43Z"/>
    </g>
    <path class="cls-1" d="m3637.54,127.37c-2.06-7.48-2.07-15.46,0-22.94,2.07,7.47,2.06,15.46,0,22.94h0Z"/>
    <g>
      <path class="cls-6" d="m3671.98,79.74c0,19.57-15.86,35.43-35.43,35.43s-33.43-15.86-33.43-35.43S3636.54,0,3636.54,0c0,0,35.43,60.17,35.43,79.74Z"/>
      <path class="cls-5" d="m3636.54,115.17c-14.02,0-22.24-10.79-22.24-24.81,0-9.37,9.8-37.26,22.24-60.06,12.44,22.8,22.21,44.29,22.21,53.67,0,14.02-8.19,31.2-22.21,31.2Z"/>
      <path class="cls-4" d="m3636.54,115.23c-8.51,0-15.43-6.92-15.43-15.43,0-3.24,4.34-15.97,15.43-37.96,11.09,21.99,15.43,34.72,15.43,37.96,0,8.51-6.92,15.43-15.43,15.43Z"/>
    </g>
    <path class="cls-1" d="m3737.54,127.37c-2.06-7.48-2.07-15.46,0-22.94,2.07,7.47,2.06,15.46,0,22.94h0Z"/>
    <g>
      <path class="cls-6" d="m3771.98,79.74c0,19.57-15.86,35.43-35.43,35.43s-33.43-15.86-33.43-35.43S3736.54,0,3736.54,0c0,0,35.43,60.17,35.43,79.74Z"/>
      <path class="cls-5" d="m3736.54,115.17c-14.02,0-22.24-10.79-22.24-24.81,0-9.37,9.8-37.26,22.24-60.06,12.44,22.8,22.21,44.29,22.21,53.67,0,14.02-8.19,31.2-22.21,31.2Z"/>
      <path class="cls-4" d="m3736.54,115.23c-8.51,0-15.43-6.92-15.43-15.43,0-3.24,4.34-15.97,15.43-37.96,11.09,21.99,15.43,34.72,15.43,37.96,0,8.51-6.92,15.43-15.43,15.43Z"/>
    </g>
    <path class="cls-1" d="m3837.54,127.37c-2.06-7.48-2.07-15.46,0-22.94,2.07,7.47,2.06,15.46,0,22.94h0Z"/>
    <g>
      <path class="cls-6" d="m3871.98,79.74c0,19.57-15.86,35.43-35.43,35.43s-33.43-15.86-33.43-35.43S3836.54,0,3836.54,0c0,0,35.43,60.17,35.43,79.74Z"/>
      <path class="cls-5" d="m3836.54,115.17c-14.02,0-22.24-10.79-22.24-24.81,0-9.37,9.8-37.26,22.24-60.06,12.44,22.8,22.21,44.29,22.21,53.67,0,14.02-8.19,31.2-22.21,31.2Z"/>
      <path class="cls-4" d="m3836.54,115.23c-8.51,0-15.43-6.92-15.43-15.43,0-3.24,4.34-15.97,15.43-37.96,11.09,21.99,15.43,34.72,15.43,37.96,0,8.51-6.92,15.43-15.43,15.43Z"/>
    </g>
    <g>
      <path class="cls-3" d="m73.09,137.93v539.53H0V137.93l25.21-13.8c7.06-3.86,15.61-3.86,22.67,0l22.5,12.32,2.71,1.48Z"/>
      <g>
        <polygon class="cls-2" points="73.09 137.93 73.09 179.32 0 221.52 0 177.08 70.38 136.45 73.09 137.93"/>
        <polygon class="cls-2" points="73.09 226.07 73.09 270.51 0 312.71 0 268.28 73.09 226.07"/>
        <polygon class="cls-2" points="73.09 317.26 73.09 361.7 0 403.9 0 359.46 73.09 317.26"/>
        <polygon class="cls-2" points="73.09 408.45 73.09 452.9 0 495.09 0 450.65 73.09 408.45"/>
        <polygon class="cls-2" points="73.09 499.64 73.09 544.08 0 586.28 0 541.84 73.09 499.64"/>
        <polygon class="cls-2" points="73.09 590.83 73.09 635.27 .02 677.46 0 677.46 0 633.03 73.09 590.83"/>
      </g>
      <path class="cls-3" d="m173.09,137.93v539.53h-73.09V137.93l25.21-13.8c7.06-3.86,15.61-3.86,22.67,0l22.5,12.32,2.71,1.48Z"/>
      <g>
        <polygon class="cls-2" points="173.09 137.93 173.09 179.32 100 221.52 100 177.08 170.38 136.45 173.09 137.93"/>
        <polygon class="cls-2" points="173.09 226.07 173.09 270.51 100 312.71 100 268.28 173.09 226.07"/>
        <polygon class="cls-2" points="173.09 317.26 173.09 361.7 100 403.9 100 359.46 173.09 317.26"/>
        <polygon class="cls-2" points="173.09 408.45 173.09 452.9 100 495.09 100 450.65 173.09 408.45"/>
        <polygon class="cls-2" points="173.09 499.64 173.09 544.08 100 586.28 100 541.84 173.09 499.64"/>
        <polygon class="cls-2" points="173.09 590.83 173.09 635.27 100.02 677.46 100 677.46 100 633.03 173.09 590.83"/>
      </g>
      <path class="cls-3" d="m273.09,137.93v539.53h-73.09V137.93l25.21-13.8c7.06-3.86,15.61-3.86,22.67,0l22.5,12.32,2.71,1.48Z"/>
      <g>
        <polygon class="cls-2" points="273.09 137.93 273.09 179.32 200 221.52 200 177.08 270.38 136.45 273.09 137.93"/>
        <polygon class="cls-2" points="273.09 226.07 273.09 270.51 200 312.71 200 268.28 273.09 226.07"/>
        <polygon class="cls-2" points="273.09 317.26 273.09 361.7 200 403.9 200 359.46 273.09 317.26"/>
        <polygon class="cls-2" points="273.09 408.45 273.09 452.9 200 495.09 200 450.65 273.09 408.45"/>
        <polygon class="cls-2" points="273.09 499.64 273.09 544.08 200 586.28 200 541.84 273.09 499.64"/>
        <polygon class="cls-2" points="273.09 590.83 273.09 635.27 200.02 677.46 200 677.46 200 633.03 273.09 590.83"/>
      </g>
      <path class="cls-3" d="m373.09,137.93v539.53h-73.09V137.93l25.21-13.8c7.06-3.86,15.61-3.86,22.67,0l22.5,12.32,2.71,1.48Z"/>
      <g>
        <polygon class="cls-2" points="373.09 137.93 373.09 179.32 300 221.52 300 177.08 370.38 136.45 373.09 137.93"/>
        <polygon class="cls-2" points="373.09 226.07 373.09 270.51 300 312.71 300 268.28 373.09 226.07"/>
        <polygon class="cls-2" points="373.09 317.26 373.09 361.7 300 403.9 300 359.46 373.09 317.26"/>
        <polygon class="cls-2" points="373.09 408.45 373.09 452.9 300 495.09 300 450.65 373.09 408.45"/>
        <polygon class="cls-2" points="373.09 499.64 373.09 544.08 300 586.28 300 541.84 373.09 499.64"/>
        <polygon class="cls-2" points="373.09 590.83 373.09 635.27 300.02 677.46 300 677.46 300 633.03 373.09 590.83"/>
      </g>
      <path class="cls-3" d="m473.09,137.93v539.53h-73.09V137.93l25.21-13.8c7.06-3.86,15.61-3.86,22.67,0l22.5,12.32,2.71,1.48Z"/>
      <g>
        <polygon class="cls-2" points="473.09 137.93 473.09 179.32 400 221.52 400 177.08 470.38 136.45 473.09 137.93"/>
        <polygon class="cls-2" points="473.09 226.07 473.09 270.51 400 312.71 400 268.28 473.09 226.07"/>
        <polygon class="cls-2" points="473.09 317.26 473.09 361.7 400 403.9 400 359.46 473.09 317.26"/>
        <polygon class="cls-2" points="473.09 408.45 473.09 452.9 400 495.09 400 450.65 473.09 408.45"/>
        <polygon class="cls-2" points="473.09 499.64 473.09 544.08 400 586.28 400 541.84 473.09 499.64"/>
        <polygon class="cls-2" points="473.09 590.83 473.09 635.27 400.02 677.46 400 677.46 400 633.03 473.09 590.83"/>
      </g>
      <path class="cls-3" d="m573.09,137.93v539.53h-73.09V137.93l25.21-13.8c7.06-3.86,15.61-3.86,22.67,0l22.5,12.32,2.71,1.48Z"/>
      <g>
        <polygon class="cls-2" points="573.09 137.93 573.09 179.32 500 221.52 500 177.08 570.38 136.45 573.09 137.93"/>
        <polygon class="cls-2" points="573.09 226.07 573.09 270.51 500 312.71 500 268.28 573.09 226.07"/>
        <polygon class="cls-2" points="573.09 317.26 573.09 361.7 500 403.9 500 359.46 573.09 317.26"/>
        <polygon class="cls-2" points="573.09 408.45 573.09 452.9 500 495.09 500 450.65 573.09 408.45"/>
        <polygon class="cls-2" points="573.09 499.64 573.09 544.08 500 586.28 500 541.84 573.09 499.64"/>
        <polygon class="cls-2" points="573.09 590.83 573.09 635.27 500.02 677.46 500 677.46 500 633.03 573.09 590.83"/>
      </g>
      <path class="cls-3" d="m673.09,137.93v539.53h-73.09V137.93l25.21-13.8c7.06-3.86,15.61-3.86,22.67,0l22.5,12.32,2.71,1.48Z"/>
      <g>
        <polygon class="cls-2" points="673.09 137.93 673.09 179.32 600 221.52 600 177.08 670.38 136.45 673.09 137.93"/>
        <polygon class="cls-2" points="673.09 226.07 673.09 270.51 600 312.71 600 268.28 673.09 226.07"/>
        <polygon class="cls-2" points="673.09 317.26 673.09 361.7 600 403.9 600 359.46 673.09 317.26"/>
        <polygon class="cls-2" points="673.09 408.45 673.09 452.9 600 495.09 600 450.65 673.09 408.45"/>
        <polygon class="cls-2" points="673.09 499.64 673.09 544.08 600 586.28 600 541.84 673.09 499.64"/>
        <polygon class="cls-2" points="673.09 590.83 673.09 635.27 600.02 677.46 600 677.46 600 633.03 673.09 590.83"/>
      </g>
      <path class="cls-3" d="m773.09,137.93v539.53h-73.09V137.93l25.21-13.8c7.06-3.86,15.61-3.86,22.67,0l22.5,12.32,2.71,1.48Z"/>
      <g>
        <polygon class="cls-2" points="773.09 137.93 773.09 179.32 700 221.52 700 177.08 770.38 136.45 773.09 137.93"/>
        <polygon class="cls-2" points="773.09 226.07 773.09 270.51 700 312.71 700 268.28 773.09 226.07"/>
        <polygon class="cls-2" points="773.09 317.26 773.09 361.7 700 403.9 700 359.46 773.09 317.26"/>
        <polygon class="cls-2" points="773.09 408.45 773.09 452.9 700 495.09 700 450.65 773.09 408.45"/>
        <polygon class="cls-2" points="773.09 499.64 773.09 544.08 700 586.28 700 541.84 773.09 499.64"/>
        <polygon class="cls-2" points="773.09 590.83 773.09 635.27 700.02 677.46 700 677.46 700 633.03 773.09 590.83"/>
      </g>
      <path class="cls-3" d="m873.09,137.93v539.53h-73.09V137.93l25.21-13.8c7.06-3.86,15.61-3.86,22.67,0l22.5,12.32,2.71,1.48Z"/>
      <g>
        <polygon class="cls-2" points="873.09 137.93 873.09 179.32 800 221.52 800 177.08 870.38 136.45 873.09 137.93"/>
        <polygon class="cls-2" points="873.09 226.07 873.09 270.51 800 312.71 800 268.28 873.09 226.07"/>
        <polygon class="cls-2" points="873.09 317.26 873.09 361.7 800 403.9 800 359.46 873.09 317.26"/>
        <polygon class="cls-2" points="873.09 408.45 873.09 452.9 800 495.09 800 450.65 873.09 408.45"/>
        <polygon class="cls-2" points="873.09 499.64 873.09 544.08 800 586.28 800 541.84 873.09 499.64"/>
        <polygon class="cls-2" points="873.09 590.83 873.09 635.27 800.02 677.46 800 677.46 800 633.03 873.09 590.83"/>
      </g>
      <path class="cls-3" d="m973.09,137.93v539.53h-73.09V137.93l25.21-13.8c7.06-3.86,15.61-3.86,22.67,0l22.5,12.32,2.71,1.48Z"/>
      <g>
        <polygon class="cls-2" points="973.09 137.93 973.09 179.32 900 221.52 900 177.08 970.38 136.45 973.09 137.93"/>
        <polygon class="cls-2" points="973.09 226.07 973.09 270.51 900 312.71 900 268.28 973.09 226.07"/>
        <polygon class="cls-2" points="973.09 317.26 973.09 361.7 900 403.9 900 359.46 973.09 317.26"/>
        <polygon class="cls-2" points="973.09 408.45 973.09 452.9 900 495.09 900 450.65 973.09 408.45"/>
        <polygon class="cls-2" points="973.09 499.64 973.09 544.08 900 586.28 900 541.84 973.09 499.64"/>
        <polygon class="cls-2" points="973.09 590.83 973.09 635.27 900.02 677.46 900 677.46 900 633.03 973.09 590.83"/>
      </g>
      <path class="cls-3" d="m1073.09,137.93v539.53h-73.09V137.93l25.21-13.8c7.06-3.86,15.61-3.86,22.67,0l22.5,12.32,2.71,1.48Z"/>
      <g>
        <polygon class="cls-2" points="1073.09 137.93 1073.09 179.32 1000 221.52 1000 177.08 1070.38 136.45 1073.09 137.93"/>
        <polygon class="cls-2" points="1073.09 226.07 1073.09 270.51 1000 312.71 1000 268.28 1073.09 226.07"/>
        <polygon class="cls-2" points="1073.09 317.26 1073.09 361.7 1000 403.9 1000 359.46 1073.09 317.26"/>
        <polygon class="cls-2" points="1073.09 408.45 1073.09 452.9 1000 495.09 1000 450.65 1073.09 408.45"/>
        <polygon class="cls-2" points="1073.09 499.64 1073.09 544.08 1000 586.28 1000 541.84 1073.09 499.64"/>
        <polygon class="cls-2" points="1073.09 590.83 1073.09 635.27 1000.02 677.46 1000 677.46 1000 633.03 1073.09 590.83"/>
      </g>
      <path class="cls-3" d="m1173.09,137.93v539.53h-73.09V137.93l25.21-13.8c7.06-3.86,15.61-3.86,22.67,0l22.5,12.32,2.71,1.48Z"/>
      <g>
        <polygon class="cls-2" points="1173.09 137.93 1173.09 179.32 1100 221.52 1100 177.08 1170.38 136.45 1173.09 137.93"/>
        <polygon class="cls-2" points="1173.09 226.07 1173.09 270.51 1100 312.71 1100 268.28 1173.09 226.07"/>
        <polygon class="cls-2" points="1173.09 317.26 1173.09 361.7 1100 403.9 1100 359.46 1173.09 317.26"/>
        <polygon class="cls-2" points="1173.09 408.45 1173.09 452.9 1100 495.09 1100 450.65 1173.09 408.45"/>
        <polygon class="cls-2" points="1173.09 499.64 1173.09 544.08 1100 586.28 1100 541.84 1173.09 499.64"/>
        <polygon class="cls-2" points="1173.09 590.83 1173.09 635.27 1100.02 677.46 1100 677.46 1100 633.03 1173.09 590.83"/>
      </g>
      <path class="cls-3" d="m1273.09,137.93v539.53h-73.09V137.93l25.21-13.8c7.06-3.86,15.61-3.86,22.67,0l22.5,12.32,2.71,1.48Z"/>
      <g>
        <polygon class="cls-2" points="1273.09 137.93 1273.09 179.32 1200 221.52 1200 177.08 1270.38 136.45 1273.09 137.93"/>
        <polygon class="cls-2" points="1273.09 226.07 1273.09 270.51 1200 312.71 1200 268.28 1273.09 226.07"/>
        <polygon class="cls-2" points="1273.09 317.26 1273.09 361.7 1200 403.9 1200 359.46 1273.09 317.26"/>
        <polygon class="cls-2" points="1273.09 408.45 1273.09 452.9 1200 495.09 1200 450.65 1273.09 408.45"/>
        <polygon class="cls-2" points="1273.09 499.64 1273.09 544.08 1200 586.28 1200 541.84 1273.09 499.64"/>
        <polygon class="cls-2" points="1273.09 590.83 1273.09 635.27 1200.02 677.46 1200 677.46 1200 633.03 1273.09 590.83"/>
      </g>
      <path class="cls-3" d="m1373.09,137.93v539.53h-73.09V137.93l25.21-13.8c7.06-3.86,15.61-3.86,22.67,0l22.5,12.32,2.71,1.48Z"/>
      <g>
        <polygon class="cls-2" points="1373.09 137.93 1373.09 179.32 1300 221.52 1300 177.08 1370.38 136.45 1373.09 137.93"/>
        <polygon class="cls-2" points="1373.09 226.07 1373.09 270.51 1300 312.71 1300 268.28 1373.09 226.07"/>
        <polygon class="cls-2" points="1373.09 317.26 1373.09 361.7 1300 403.9 1300 359.46 1373.09 317.26"/>
        <polygon class="cls-2" points="1373.09 408.45 1373.09 452.9 1300 495.09 1300 450.65 1373.09 408.45"/>
        <polygon class="cls-2" points="1373.09 499.64 1373.09 544.08 1300 586.28 1300 541.84 1373.09 499.64"/>
        <polygon class="cls-2" points="1373.09 590.83 1373.09 635.27 1300.02 677.46 1300 677.46 1300 633.03 1373.09 590.83"/>
      </g>
      <path class="cls-3" d="m1473.09,137.93v539.53h-73.09V137.93l25.21-13.8c7.06-3.86,15.61-3.86,22.67,0l22.5,12.32,2.71,1.48Z"/>
      <g>
        <polygon class="cls-2" points="1473.09 137.93 1473.09 179.32 1400 221.52 1400 177.08 1470.38 136.45 1473.09 137.93"/>
        <polygon class="cls-2" points="1473.09 226.07 1473.09 270.51 1400 312.71 1400 268.28 1473.09 226.07"/>
        <polygon class="cls-2" points="1473.09 317.26 1473.09 361.7 1400 403.9 1400 359.46 1473.09 317.26"/>
        <polygon class="cls-2" points="1473.09 408.45 1473.09 452.9 1400 495.09 1400 450.65 1473.09 408.45"/>
        <polygon class="cls-2" points="1473.09 499.64 1473.09 544.08 1400 586.28 1400 541.84 1473.09 499.64"/>
        <polygon class="cls-2" points="1473.09 590.83 1473.09 635.27 1400.02 677.46 1400 677.46 1400 633.03 1473.09 590.83"/>
      </g>
      <path class="cls-3" d="m1573.09,137.93v539.53h-73.09V137.93l25.21-13.8c7.06-3.86,15.61-3.86,22.67,0l22.5,12.32,2.71,1.48Z"/>
      <g>
        <polygon class="cls-2" points="1573.09 137.93 1573.09 179.32 1500 221.52 1500 177.08 1570.38 136.45 1573.09 137.93"/>
        <polygon class="cls-2" points="1573.09 226.07 1573.09 270.51 1500 312.71 1500 268.28 1573.09 226.07"/>
        <polygon class="cls-2" points="1573.09 317.26 1573.09 361.7 1500 403.9 1500 359.46 1573.09 317.26"/>
        <polygon class="cls-2" points="1573.09 408.45 1573.09 452.9 1500 495.09 1500 450.65 1573.09 408.45"/>
        <polygon class="cls-2" points="1573.09 499.64 1573.09 544.08 1500 586.28 1500 541.84 1573.09 499.64"/>
        <polygon class="cls-2" points="1573.09 590.83 1573.09 635.27 1500.02 677.46 1500 677.46 1500 633.03 1573.09 590.83"/>
      </g>
      <path class="cls-3" d="m1673.09,137.93v539.53h-73.09V137.93l25.21-13.8c7.06-3.86,15.61-3.86,22.67,0l22.5,12.32,2.71,1.48Z"/>
      <g>
        <polygon class="cls-2" points="1673.09 137.93 1673.09 179.32 1600 221.52 1600 177.08 1670.38 136.45 1673.09 137.93"/>
        <polygon class="cls-2" points="1673.09 226.07 1673.09 270.51 1600 312.71 1600 268.28 1673.09 226.07"/>
        <polygon class="cls-2" points="1673.09 317.26 1673.09 361.7 1600 403.9 1600 359.46 1673.09 317.26"/>
        <polygon class="cls-2" points="1673.09 408.45 1673.09 452.9 1600 495.09 1600 450.65 1673.09 408.45"/>
        <polygon class="cls-2" points="1673.09 499.64 1673.09 544.08 1600 586.28 1600 541.84 1673.09 499.64"/>
        <polygon class="cls-2" points="1673.09 590.83 1673.09 635.27 1600.02 677.46 1600 677.46 1600 633.03 1673.09 590.83"/>
      </g>
      <path class="cls-3" d="m1773.09,137.93v539.53h-73.09V137.93l25.21-13.8c7.06-3.86,15.61-3.86,22.67,0l22.5,12.32,2.71,1.48Z"/>
      <g>
        <polygon class="cls-2" points="1773.09 137.93 1773.09 179.32 1700 221.52 1700 177.08 1770.38 136.45 1773.09 137.93"/>
        <polygon class="cls-2" points="1773.09 226.07 1773.09 270.51 1700 312.71 1700 268.28 1773.09 226.07"/>
        <polygon class="cls-2" points="1773.09 317.26 1773.09 361.7 1700 403.9 1700 359.46 1773.09 317.26"/>
        <polygon class="cls-2" points="1773.09 408.45 1773.09 452.9 1700 495.09 1700 450.65 1773.09 408.45"/>
        <polygon class="cls-2" points="1773.09 499.64 1773.09 544.08 1700 586.28 1700 541.84 1773.09 499.64"/>
        <polygon class="cls-2" points="1773.09 590.83 1773.09 635.27 1700.02 677.46 1700 677.46 1700 633.03 1773.09 590.83"/>
      </g>
      <path class="cls-3" d="m1873.09,137.93v539.53h-73.09V137.93l25.21-13.8c7.06-3.86,15.61-3.86,22.67,0l22.5,12.32,2.71,1.48Z"/>
      <g>
        <polygon class="cls-2" points="1873.09 137.93 1873.09 179.32 1800 221.52 1800 177.08 1870.38 136.45 1873.09 137.93"/>
        <polygon class="cls-2" points="1873.09 226.07 1873.09 270.51 1800 312.71 1800 268.28 1873.09 226.07"/>
        <polygon class="cls-2" points="1873.09 317.26 1873.09 361.7 1800 403.9 1800 359.46 1873.09 317.26"/>
        <polygon class="cls-2" points="1873.09 408.45 1873.09 452.9 1800 495.09 1800 450.65 1873.09 408.45"/>
        <polygon class="cls-2" points="1873.09 499.64 1873.09 544.08 1800 586.28 1800 541.84 1873.09 499.64"/>
        <polygon class="cls-2" points="1873.09 590.83 1873.09 635.27 1800.02 677.46 1800 677.46 1800 633.03 1873.09 590.83"/>
      </g>
      <path class="cls-3" d="m1973.09,137.93v539.53h-73.09V137.93l25.21-13.8c7.06-3.86,15.61-3.86,22.67,0l22.5,12.32,2.71,1.48Z"/>
      <g>
        <polygon class="cls-2" points="1973.09 137.93 1973.09 179.32 1900 221.52 1900 177.08 1970.38 136.45 1973.09 137.93"/>
        <polygon class="cls-2" points="1973.09 226.07 1973.09 270.51 1900 312.71 1900 268.28 1973.09 226.07"/>
        <polygon class="cls-2" points="1973.09 317.26 1973.09 361.7 1900 403.9 1900 359.46 1973.09 317.26"/>
        <polygon class="cls-2" points="1973.09 408.45 1973.09 452.9 1900 495.09 1900 450.65 1973.09 408.45"/>
        <polygon class="cls-2" points="1973.09 499.64 1973.09 544.08 1900 586.28 1900 541.84 1973.09 499.64"/>
        <polygon class="cls-2" points="1973.09 590.83 1973.09 635.27 1900.02 677.46 1900 677.46 1900 633.03 1973.09 590.83"/>
      </g>
      <path class="cls-3" d="m2073.09,137.93v539.53h-73.09V137.93l25.21-13.8c7.06-3.86,15.61-3.86,22.67,0l22.5,12.32,2.71,1.48Z"/>
      <g>
        <polygon class="cls-2" points="2073.09 137.93 2073.09 179.32 2000 221.52 2000 177.08 2070.38 136.45 2073.09 137.93"/>
        <polygon class="cls-2" points="2073.09 226.07 2073.09 270.51 2000 312.71 2000 268.28 2073.09 226.07"/>
        <polygon class="cls-2" points="2073.09 317.26 2073.09 361.7 2000 403.9 2000 359.46 2073.09 317.26"/>
        <polygon class="cls-2" points="2073.09 408.45 2073.09 452.9 2000 495.09 2000 450.65 2073.09 408.45"/>
        <polygon class="cls-2" points="2073.09 499.64 2073.09 544.08 2000 586.28 2000 541.84 2073.09 499.64"/>
        <polygon class="cls-2" points="2073.09 590.83 2073.09 635.27 2000.02 677.46 2000 677.46 2000 633.03 2073.09 590.83"/>
      </g>
      <path class="cls-3" d="m2173.09,137.93v539.53h-73.09V137.93l25.21-13.8c7.06-3.86,15.61-3.86,22.67,0l22.5,12.32,2.71,1.48Z"/>
      <g>
        <polygon class="cls-2" points="2173.09 137.93 2173.09 179.32 2100 221.52 2100 177.08 2170.38 136.45 2173.09 137.93"/>
        <polygon class="cls-2" points="2173.09 226.07 2173.09 270.51 2100 312.71 2100 268.28 2173.09 226.07"/>
        <polygon class="cls-2" points="2173.09 317.26 2173.09 361.7 2100 403.9 2100 359.46 2173.09 317.26"/>
        <polygon class="cls-2" points="2173.09 408.45 2173.09 452.9 2100 495.09 2100 450.65 2173.09 408.45"/>
        <polygon class="cls-2" points="2173.09 499.64 2173.09 544.08 2100 586.28 2100 541.84 2173.09 499.64"/>
        <polygon class="cls-2" points="2173.09 590.83 2173.09 635.27 2100.02 677.46 2100 677.46 2100 633.03 2173.09 590.83"/>
      </g>
      <path class="cls-3" d="m2273.09,137.93v539.53h-73.09V137.93l25.21-13.8c7.06-3.86,15.61-3.86,22.67,0l22.5,12.32,2.71,1.48Z"/>
      <g>
        <polygon class="cls-2" points="2273.09 137.93 2273.09 179.32 2200 221.52 2200 177.08 2270.38 136.45 2273.09 137.93"/>
        <polygon class="cls-2" points="2273.09 226.07 2273.09 270.51 2200 312.71 2200 268.28 2273.09 226.07"/>
        <polygon class="cls-2" points="2273.09 317.26 2273.09 361.7 2200 403.9 2200 359.46 2273.09 317.26"/>
        <polygon class="cls-2" points="2273.09 408.45 2273.09 452.9 2200 495.09 2200 450.65 2273.09 408.45"/>
        <polygon class="cls-2" points="2273.09 499.64 2273.09 544.08 2200 586.28 2200 541.84 2273.09 499.64"/>
        <polygon class="cls-2" points="2273.09 590.83 2273.09 635.27 2200.02 677.46 2200 677.46 2200 633.03 2273.09 590.83"/>
      </g>
      <path class="cls-3" d="m2373.09,137.93v539.53h-73.09V137.93l25.21-13.8c7.06-3.86,15.61-3.86,22.67,0l22.5,12.32,2.71,1.48Z"/>
      <g>
        <polygon class="cls-2" points="2373.09 137.93 2373.09 179.32 2300 221.52 2300 177.08 2370.38 136.45 2373.09 137.93"/>
        <polygon class="cls-2" points="2373.09 226.07 2373.09 270.51 2300 312.71 2300 268.28 2373.09 226.07"/>
        <polygon class="cls-2" points="2373.09 317.26 2373.09 361.7 2300 403.9 2300 359.46 2373.09 317.26"/>
        <polygon class="cls-2" points="2373.09 408.45 2373.09 452.9 2300 495.09 2300 450.65 2373.09 408.45"/>
        <polygon class="cls-2" points="2373.09 499.64 2373.09 544.08 2300 586.28 2300 541.84 2373.09 499.64"/>
        <polygon class="cls-2" points="2373.09 590.83 2373.09 635.27 2300.02 677.46 2300 677.46 2300 633.03 2373.09 590.83"/>
      </g>
      <path class="cls-3" d="m2473.09,137.93v539.53h-73.09V137.93l25.21-13.8c7.06-3.86,15.61-3.86,22.67,0l22.5,12.32,2.71,1.48Z"/>
      <g>
        <polygon class="cls-2" points="2473.09 137.93 2473.09 179.32 2400 221.52 2400 177.08 2470.38 136.45 2473.09 137.93"/>
        <polygon class="cls-2" points="2473.09 226.07 2473.09 270.51 2400 312.71 2400 268.28 2473.09 226.07"/>
        <polygon class="cls-2" points="2473.09 317.26 2473.09 361.7 2400 403.9 2400 359.46 2473.09 317.26"/>
        <polygon class="cls-2" points="2473.09 408.45 2473.09 452.9 2400 495.09 2400 450.65 2473.09 408.45"/>
        <polygon class="cls-2" points="2473.09 499.64 2473.09 544.08 2400 586.28 2400 541.84 2473.09 499.64"/>
        <polygon class="cls-2" points="2473.09 590.83 2473.09 635.27 2400.02 677.46 2400 677.46 2400 633.03 2473.09 590.83"/>
      </g>
      <path class="cls-3" d="m2573.09,137.93v539.53h-73.09V137.93l25.21-13.8c7.06-3.86,15.61-3.86,22.67,0l22.5,12.32,2.71,1.48Z"/>
      <g>
        <polygon class="cls-2" points="2573.09 137.93 2573.09 179.32 2500 221.52 2500 177.08 2570.38 136.45 2573.09 137.93"/>
        <polygon class="cls-2" points="2573.09 226.07 2573.09 270.51 2500 312.71 2500 268.28 2573.09 226.07"/>
        <polygon class="cls-2" points="2573.09 317.26 2573.09 361.7 2500 403.9 2500 359.46 2573.09 317.26"/>
        <polygon class="cls-2" points="2573.09 408.45 2573.09 452.9 2500 495.09 2500 450.65 2573.09 408.45"/>
        <polygon class="cls-2" points="2573.09 499.64 2573.09 544.08 2500 586.28 2500 541.84 2573.09 499.64"/>
        <polygon class="cls-2" points="2573.09 590.83 2573.09 635.27 2500.02 677.46 2500 677.46 2500 633.03 2573.09 590.83"/>
      </g>
      <path class="cls-3" d="m2673.09,137.93v539.53h-73.09V137.93l25.21-13.8c7.06-3.86,15.61-3.86,22.67,0l22.5,12.32,2.71,1.48Z"/>
      <g>
        <polygon class="cls-2" points="2673.09 137.93 2673.09 179.32 2600 221.52 2600 177.08 2670.38 136.45 2673.09 137.93"/>
        <polygon class="cls-2" points="2673.09 226.07 2673.09 270.51 2600 312.71 2600 268.28 2673.09 226.07"/>
        <polygon class="cls-2" points="2673.09 317.26 2673.09 361.7 2600 403.9 2600 359.46 2673.09 317.26"/>
        <polygon class="cls-2" points="2673.09 408.45 2673.09 452.9 2600 495.09 2600 450.65 2673.09 408.45"/>
        <polygon class="cls-2" points="2673.09 499.64 2673.09 544.08 2600 586.28 2600 541.84 2673.09 499.64"/>
        <polygon class="cls-2" points="2673.09 590.83 2673.09 635.27 2600.02 677.46 2600 677.46 2600 633.03 2673.09 590.83"/>
      </g>
      <path class="cls-3" d="m2773.09,137.93v539.53h-73.09V137.93l25.21-13.8c7.06-3.86,15.61-3.86,22.67,0l22.5,12.32,2.71,1.48Z"/>
      <g>
        <polygon class="cls-2" points="2773.09 137.93 2773.09 179.32 2700 221.52 2700 177.08 2770.38 136.45 2773.09 137.93"/>
        <polygon class="cls-2" points="2773.09 226.07 2773.09 270.51 2700 312.71 2700 268.28 2773.09 226.07"/>
        <polygon class="cls-2" points="2773.09 317.26 2773.09 361.7 2700 403.9 2700 359.46 2773.09 317.26"/>
        <polygon class="cls-2" points="2773.09 408.45 2773.09 452.9 2700 495.09 2700 450.65 2773.09 408.45"/>
        <polygon class="cls-2" points="2773.09 499.64 2773.09 544.08 2700 586.28 2700 541.84 2773.09 499.64"/>
        <polygon class="cls-2" points="2773.09 590.83 2773.09 635.27 2700.02 677.46 2700 677.46 2700 633.03 2773.09 590.83"/>
      </g>
      <path class="cls-3" d="m2873.09,137.93v539.53h-73.09V137.93l25.21-13.8c7.06-3.86,15.61-3.86,22.67,0l22.5,12.32,2.71,1.48Z"/>
      <g>
        <polygon class="cls-2" points="2873.09 137.93 2873.09 179.32 2800 221.52 2800 177.08 2870.38 136.45 2873.09 137.93"/>
        <polygon class="cls-2" points="2873.09 226.07 2873.09 270.51 2800 312.71 2800 268.28 2873.09 226.07"/>
        <polygon class="cls-2" points="2873.09 317.26 2873.09 361.7 2800 403.9 2800 359.46 2873.09 317.26"/>
        <polygon class="cls-2" points="2873.09 408.45 2873.09 452.9 2800 495.09 2800 450.65 2873.09 408.45"/>
        <polygon class="cls-2" points="2873.09 499.64 2873.09 544.08 2800 586.28 2800 541.84 2873.09 499.64"/>
        <polygon class="cls-2" points="2873.09 590.83 2873.09 635.27 2800.02 677.46 2800 677.46 2800 633.03 2873.09 590.83"/>
      </g>
      <path class="cls-3" d="m2973.09,137.93v539.53h-73.09V137.93l25.21-13.8c7.06-3.86,15.61-3.86,22.67,0l22.5,12.32,2.71,1.48Z"/>
      <g>
        <polygon class="cls-2" points="2973.09 137.93 2973.09 179.32 2900 221.52 2900 177.08 2970.38 136.45 2973.09 137.93"/>
        <polygon class="cls-2" points="2973.09 226.07 2973.09 270.51 2900 312.71 2900 268.28 2973.09 226.07"/>
        <polygon class="cls-2" points="2973.09 317.26 2973.09 361.7 2900 403.9 2900 359.46 2973.09 317.26"/>
        <polygon class="cls-2" points="2973.09 408.45 2973.09 452.9 2900 495.09 2900 450.65 2973.09 408.45"/>
        <polygon class="cls-2" points="2973.09 499.64 2973.09 544.08 2900 586.28 2900 541.84 2973.09 499.64"/>
        <polygon class="cls-2" points="2973.09 590.83 2973.09 635.27 2900.02 677.46 2900 677.46 2900 633.03 2973.09 590.83"/>
      </g>
      <path class="cls-3" d="m3073.09,137.93v539.53h-73.09V137.93l25.21-13.8c7.06-3.86,15.61-3.86,22.67,0l22.5,12.32,2.71,1.48Z"/>
      <g>
        <polygon class="cls-2" points="3073.09 137.93 3073.09 179.32 3000 221.52 3000 177.08 3070.38 136.45 3073.09 137.93"/>
        <polygon class="cls-2" points="3073.09 226.07 3073.09 270.51 3000 312.71 3000 268.28 3073.09 226.07"/>
        <polygon class="cls-2" points="3073.09 317.26 3073.09 361.7 3000 403.9 3000 359.46 3073.09 317.26"/>
        <polygon class="cls-2" points="3073.09 408.45 3073.09 452.9 3000 495.09 3000 450.65 3073.09 408.45"/>
        <polygon class="cls-2" points="3073.09 499.64 3073.09 544.08 3000 586.28 3000 541.84 3073.09 499.64"/>
        <polygon class="cls-2" points="3073.09 590.83 3073.09 635.27 3000.02 677.46 3000 677.46 3000 633.03 3073.09 590.83"/>
      </g>
      <path class="cls-3" d="m3173.09,137.93v539.53h-73.09V137.93l25.21-13.8c7.06-3.86,15.61-3.86,22.67,0l22.5,12.32,2.71,1.48Z"/>
      <g>
        <polygon class="cls-2" points="3173.09 137.93 3173.09 179.32 3100 221.52 3100 177.08 3170.38 136.45 3173.09 137.93"/>
        <polygon class="cls-2" points="3173.09 226.07 3173.09 270.51 3100 312.71 3100 268.28 3173.09 226.07"/>
        <polygon class="cls-2" points="3173.09 317.26 3173.09 361.7 3100 403.9 3100 359.46 3173.09 317.26"/>
        <polygon class="cls-2" points="3173.09 408.45 3173.09 452.9 3100 495.09 3100 450.65 3173.09 408.45"/>
        <polygon class="cls-2" points="3173.09 499.64 3173.09 544.08 3100 586.28 3100 541.84 3173.09 499.64"/>
        <polygon class="cls-2" points="3173.09 590.83 3173.09 635.27 3100.02 677.46 3100 677.46 3100 633.03 3173.09 590.83"/>
      </g>
      <path class="cls-3" d="m3273.09,137.93v539.53h-73.09V137.93l25.21-13.8c7.06-3.86,15.61-3.86,22.67,0l22.5,12.32,2.71,1.48Z"/>
      <g>
        <polygon class="cls-2" points="3273.09 137.93 3273.09 179.32 3200 221.52 3200 177.08 3270.38 136.45 3273.09 137.93"/>
        <polygon class="cls-2" points="3273.09 226.07 3273.09 270.51 3200 312.71 3200 268.28 3273.09 226.07"/>
        <polygon class="cls-2" points="3273.09 317.26 3273.09 361.7 3200 403.9 3200 359.46 3273.09 317.26"/>
        <polygon class="cls-2" points="3273.09 408.45 3273.09 452.9 3200 495.09 3200 450.65 3273.09 408.45"/>
        <polygon class="cls-2" points="3273.09 499.64 3273.09 544.08 3200 586.28 3200 541.84 3273.09 499.64"/>
        <polygon class="cls-2" points="3273.09 590.83 3273.09 635.27 3200.02 677.46 3200 677.46 3200 633.03 3273.09 590.83"/>
      </g>
      <path class="cls-3" d="m3373.09,137.93v539.53h-73.09V137.93l25.21-13.8c7.06-3.86,15.61-3.86,22.67,0l22.5,12.32,2.71,1.48Z"/>
      <g>
        <polygon class="cls-2" points="3373.09 137.93 3373.09 179.32 3300 221.52 3300 177.08 3370.38 136.45 3373.09 137.93"/>
        <polygon class="cls-2" points="3373.09 226.07 3373.09 270.51 3300 312.71 3300 268.28 3373.09 226.07"/>
        <polygon class="cls-2" points="3373.09 317.26 3373.09 361.7 3300 403.9 3300 359.46 3373.09 317.26"/>
        <polygon class="cls-2" points="3373.09 408.45 3373.09 452.9 3300 495.09 3300 450.65 3373.09 408.45"/>
        <polygon class="cls-2" points="3373.09 499.64 3373.09 544.08 3300 586.28 3300 541.84 3373.09 499.64"/>
        <polygon class="cls-2" points="3373.09 590.83 3373.09 635.27 3300.02 677.46 3300 677.46 3300 633.03 3373.09 590.83"/>
      </g>
      <path class="cls-3" d="m3473.09,137.93v539.53h-73.09V137.93l25.21-13.8c7.06-3.86,15.61-3.86,22.67,0l22.5,12.32,2.71,1.48Z"/>
      <g>
        <polygon class="cls-2" points="3473.09 137.93 3473.09 179.32 3400 221.52 3400 177.08 3470.38 136.45 3473.09 137.93"/>
        <polygon class="cls-2" points="3473.09 226.07 3473.09 270.51 3400 312.71 3400 268.28 3473.09 226.07"/>
        <polygon class="cls-2" points="3473.09 317.26 3473.09 361.7 3400 403.9 3400 359.46 3473.09 317.26"/>
        <polygon class="cls-2" points="3473.09 408.45 3473.09 452.9 3400 495.09 3400 450.65 3473.09 408.45"/>
        <polygon class="cls-2" points="3473.09 499.64 3473.09 544.08 3400 586.28 3400 541.84 3473.09 499.64"/>
        <polygon class="cls-2" points="3473.09 590.83 3473.09 635.27 3400.02 677.46 3400 677.46 3400 633.03 3473.09 590.83"/>
      </g>
      <path class="cls-3" d="m3573.09,137.93v539.53h-73.09V137.93l25.21-13.8c7.06-3.86,15.61-3.86,22.67,0l22.5,12.32,2.71,1.48Z"/>
      <g>
        <polygon class="cls-2" points="3573.09 137.93 3573.09 179.32 3500 221.52 3500 177.08 3570.38 136.45 3573.09 137.93"/>
        <polygon class="cls-2" points="3573.09 226.07 3573.09 270.51 3500 312.71 3500 268.28 3573.09 226.07"/>
        <polygon class="cls-2" points="3573.09 317.26 3573.09 361.7 3500 403.9 3500 359.46 3573.09 317.26"/>
        <polygon class="cls-2" points="3573.09 408.45 3573.09 452.9 3500 495.09 3500 450.65 3573.09 408.45"/>
        <polygon class="cls-2" points="3573.09 499.64 3573.09 544.08 3500 586.28 3500 541.84 3573.09 499.64"/>
        <polygon class="cls-2" points="3573.09 590.83 3573.09 635.27 3500.02 677.46 3500 677.46 3500 633.03 3573.09 590.83"/>
      </g>
      <path class="cls-3" d="m3673.09,137.93v539.53h-73.09V137.93l25.21-13.8c7.06-3.86,15.61-3.86,22.67,0l22.5,12.32,2.71,1.48Z"/>
      <g>
        <polygon class="cls-2" points="3673.09 137.93 3673.09 179.32 3600 221.52 3600 177.08 3670.38 136.45 3673.09 137.93"/>
        <polygon class="cls-2" points="3673.09 226.07 3673.09 270.51 3600 312.71 3600 268.28 3673.09 226.07"/>
        <polygon class="cls-2" points="3673.09 317.26 3673.09 361.7 3600 403.9 3600 359.46 3673.09 317.26"/>
        <polygon class="cls-2" points="3673.09 408.45 3673.09 452.9 3600 495.09 3600 450.65 3673.09 408.45"/>
        <polygon class="cls-2" points="3673.09 499.64 3673.09 544.08 3600 586.28 3600 541.84 3673.09 499.64"/>
        <polygon class="cls-2" points="3673.09 590.83 3673.09 635.27 3600.02 677.46 3600 677.46 3600 633.03 3673.09 590.83"/>
      </g>
      <path class="cls-3" d="m3773.09,137.93v539.53h-73.09V137.93l25.21-13.8c7.06-3.86,15.61-3.86,22.67,0l22.5,12.32,2.71,1.48Z"/>
      <g>
        <polygon class="cls-2" points="3773.09 137.93 3773.09 179.32 3700 221.52 3700 177.08 3770.38 136.45 3773.09 137.93"/>
        <polygon class="cls-2" points="3773.09 226.07 3773.09 270.51 3700 312.71 3700 268.28 3773.09 226.07"/>
        <polygon class="cls-2" points="3773.09 317.26 3773.09 361.7 3700 403.9 3700 359.46 3773.09 317.26"/>
        <polygon class="cls-2" points="3773.09 408.45 3773.09 452.9 3700 495.09 3700 450.65 3773.09 408.45"/>
        <polygon class="cls-2" points="3773.09 499.64 3773.09 544.08 3700 586.28 3700 541.84 3773.09 499.64"/>
        <polygon class="cls-2" points="3773.09 590.83 3773.09 635.27 3700.02 677.46 3700 677.46 3700 633.03 3773.09 590.83"/>
      </g>
      <path class="cls-3" d="m3873.09,137.93v539.53h-73.09V137.93l25.21-13.8c7.06-3.86,15.61-3.86,22.67,0l22.5,12.32,2.71,1.48Z"/>
      <g>
        <polygon class="cls-2" points="3873.09 137.93 3873.09 179.32 3800 221.52 3800 177.08 3870.38 136.45 3873.09 137.93"/>
        <polygon class="cls-2" points="3873.09 226.07 3873.09 270.51 3800 312.71 3800 268.28 3873.09 226.07"/>
        <polygon class="cls-2" points="3873.09 317.26 3873.09 361.7 3800 403.9 3800 359.46 3873.09 317.26"/>
        <polygon class="cls-2" points="3873.09 408.45 3873.09 452.9 3800 495.09 3800 450.65 3873.09 408.45"/>
        <polygon class="cls-2" points="3873.09 499.64 3873.09 544.08 3800 586.28 3800 541.84 3873.09 499.64"/>
        <polygon class="cls-2" points="3873.09 590.83 3873.09 635.27 3800.02 677.46 3800 677.46 3800 633.03 3873.09 590.83"/>
      </g>
    </g>
  </g>
</svg>